<?xml version="1.0" encoding="utf-8"?>
<!-- Generator: Adobe Illustrator 18.0.0, SVG Export Plug-In . SVG Version: 6.00 Build 0)  -->
<!DOCTYPE svg PUBLIC "-//W3C//DTD SVG 1.1//EN" "http://www.w3.org/Graphics/SVG/1.1/DTD/svg11.dtd">
<svg version="1.1" id="Layer_1" xmlns="http://www.w3.org/2000/svg" xmlns:xlink="http://www.w3.org/1999/xlink" x="0px" y="0px"
	 viewBox="0 0 1700 1400" enable-background="new 0 0 1700 1400" xml:space="preserve">
<g>
	<defs>
		<rect id="SVGID_1_" width="1700" height="1400"/>
	</defs>
	<clipPath id="SVGID_2_">
		<use xlink:href="#SVGID_1_"  overflow="visible"/>
	</clipPath>
	<g clip-path="url(#SVGID_2_)">
		<linearGradient id="SVGID_3_" gradientUnits="userSpaceOnUse" x1="336.0737" y1="436.0737" x2="747.1475" y2="25">
			<stop  offset="0" style="stop-color:#FFA900"/>
			<stop  offset="1" style="stop-color:#FFD500"/>
		</linearGradient>
		<polygon fill="url(#SVGID_3_)" points="722.1,0 0,0 0,100 722.1,822.1 		"/>
		<linearGradient id="SVGID_4_" gradientUnits="userSpaceOnUse" x1="-49.1523" y1="969.6044" x2="410.2261" y2="510.226">
			<stop  offset="0" style="stop-color:#FFA900"/>
			<stop  offset="1" style="stop-color:#FFD500"/>
		</linearGradient>
		<polygon fill="url(#SVGID_4_)" points="0,100 0,1018.8 722.1,1018.8 722.1,822.1 		"/>
	</g>
	<g clip-path="url(#SVGID_2_)">
		<rect x="722.1" fill="#FFC400" width="977.9" height="1018.8"/>
		<rect x="659.4" y="101" fill="#FF8E00" width="1040.6" height="134.1"/>
		<g>
			<rect x="755.3" y="22.1" fill="#FFAC00" width="185.7" height="55.5"/>
			<rect x="755.3" y="268.4" fill="#FFAC00" width="185.7" height="55.5"/>
			<rect x="964" y="268.4" fill="#FFAC00" width="185.7" height="55.5"/>
			<rect x="857.2" y="352.2" fill="#FFAC00" width="185.7" height="55.5"/>
			<rect x="857.2" y="489.3" fill="#FFAC00" width="185.7" height="55.5"/>
			<rect x="757.2" y="561.3" fill="#FFAC00" width="185.7" height="55.5"/>
			<rect x="964" y="561.3" fill="#FFAC00" width="185.7" height="55.5"/>
			<rect x="857.2" y="631.3" fill="#FFAC00" width="185.7" height="55.5"/>
			<rect x="1403.2" y="332.7" fill="#FFAC00" width="185.7" height="55.5"/>
			<rect x="1303.1" y="404.7" fill="#FFAC00" width="185.7" height="55.5"/>
			<rect x="1510" y="404.7" fill="#FFAC00" width="185.7" height="55.5"/>
			<rect x="1403.2" y="474.7" fill="#FFAC00" width="185.7" height="55.5"/>
			<rect x="761.9" y="795.5" fill="#FFAC00" width="185.7" height="55.5"/>
			<rect x="857.2" y="869" fill="#FFAC00" width="185.7" height="55.5"/>
			<rect x="764.4" y="938.9" fill="#FFAC00" width="185.7" height="55.5"/>
			<rect x="964" y="938.9" fill="#FFAC00" width="185.7" height="55.5"/>
			<rect x="1266.4" y="938.9" fill="#FFAC00" width="185.7" height="55.5"/>
			<rect x="1468.9" y="938.9" fill="#FFAC00" width="185.7" height="55.5"/>
			<rect x="1364.4" y="869" fill="#FFAC00" width="185.7" height="55.5"/>
			<rect x="964" y="795.5" fill="#FFAC00" width="185.7" height="55.5"/>
			<rect x="756" y="489.3" fill="#FFAC00" width="84.9" height="55.5"/>
			<rect x="1124.3" y="22.1" fill="#FFAC00" width="185.7" height="55.5"/>
			<rect x="1324.3" y="22.1" fill="#FFAC00" width="185.7" height="55.5"/>
		</g>
	</g>
	<rect y="1018.8" clip-path="url(#SVGID_2_)" fill="#FFAC00" width="1700" height="381.2"/>
	<path clip-path="url(#SVGID_2_)" fill="#FF9700" d="M714.4,653.1H310.9H-92.5v29.1h253.1L42,1018.8h27.4l18-51.1h447.2l18,51.1
		h27.4L461.3,682.2h253.1V653.1z M529.3,952.8H92.6L188,682.2h123h123L529.3,952.8z"/>
	<path clip-path="url(#SVGID_2_)" fill="#FF9700" d="M1941.6,653.1h-403.5h-403.5v29.1h253.1l-118.6,336.6h27.4l18-51.1h447.2
		l18,51.1h27.4l-118.6-336.6h253.1V653.1z M1756.5,952.8h-436.7l95.3-270.6h123h123L1756.5,952.8z"/>
	<g clip-path="url(#SVGID_2_)">
		<path fill="#FF6B00" d="M1415.9,1201.5H298.5c-5.2,0-9.5,4.2-9.5,9.5v0c0,5.2,4.2,9.5,9.5,9.5h84.2h37.9h42.9
			c5.2,0,9.5,4.2,9.5,9.5s-4.2,9.5-9.5,9.5h-42.9h-15.3c-5.2,0-9.5,4.2-9.5,9.5s4.2,9.5,9.5,9.5H1192c5.2,0,9.5-4.2,9.5-9.5
			s-4.2-9.5-9.5-9.5h-218c-5.2,0-9.5-4.2-9.5-9.5s4.2-9.5,9.5-9.5h64.6h16.2h361.1c5.2,0,9.5-4.2,9.5-9.5v0
			C1425.4,1205.7,1421.2,1201.5,1415.9,1201.5z"/>
		<path fill="#FF6B00" d="M1255.1,1239.2h-30.9c-5.2,0-9.5,4.2-9.5,9.5v0c0,5.2,4.2,9.5,9.5,9.5h30.9c5.2,0,9.5-4.2,9.5-9.5v0
			C1264.5,1243.5,1260.3,1239.2,1255.1,1239.2z"/>
		<path fill="#FF6B00" d="M367,1239.2h-18.8c-5.2,0-9.5,4.2-9.5,9.5v0c0,5.2,4.2,9.5,9.5,9.5H367c5.2,0,9.5-4.2,9.5-9.5v0
			C376.5,1243.5,372.2,1239.2,367,1239.2z"/>
	</g>
	<g opacity="0.43" clip-path="url(#SVGID_2_)">
		<linearGradient id="SVGID_5_" gradientUnits="userSpaceOnUse" x1="1235.0184" y1="464.9815" x2="1700" y2="-2.390660e-05">
			<stop  offset="1.308693e-03" style="stop-color:#FFFFFF;stop-opacity:0"/>
			<stop  offset="1" style="stop-color:#FFFFFF"/>
		</linearGradient>
		<polygon fill="url(#SVGID_5_)" points="1700,0 770,0 1700,930 		"/>
		<linearGradient id="SVGID_6_" gradientUnits="userSpaceOnUse" x1="3.050611e-05" y1="1400" x2="510.875" y2="889.125">
			<stop  offset="1.308693e-03" style="stop-color:#FFFFFF;stop-opacity:0"/>
			<stop  offset="1" style="stop-color:#FFFFFF"/>
		</linearGradient>
		<polygon fill="url(#SVGID_6_)" points="0,1400 1021.8,1400 0,378.3 		"/>
		<linearGradient id="SVGID_7_" gradientUnits="userSpaceOnUse" x1="585.8749" y1="964.1251" x2="1160.0184" y2="389.9815">
			<stop  offset="1.308693e-03" style="stop-color:#FFFFFF;stop-opacity:0"/>
			<stop  offset="1" style="stop-color:#FFFFFF"/>
		</linearGradient>
		<polygon fill="url(#SVGID_7_)" points="1700,930 770,0 0,0 0,378.3 1021.8,1400 1700,1400 		"/>
	</g>
	<g clip-path="url(#SVGID_2_)">
		<g>
			<path fill="#23186C" d="M461,716.8c-32.1-2.1-65.8-4.7-92.7-21.6c-26.9-16.8-43.2-53-26.3-79c10.7-16.5,32.7-27.1,35.1-46.3
				c3.3-26.8-34.7-46.3-31.3-73c3.3-25.5,41.5-36,46.3-61.3c3.1-16.5-9.4-31.5-15.3-47.4c-10-26.8,1.2-59.3,26-75.3
				c24.7-16,60.7-13.9,83.2,4.8c13.2-19,44.3-26.6,66.5-18c22.2,8.5,36.3,32.9,31.9,55.3c-3.6,18.7-18.4,35.7-15.2,54.5
				c3.1,18.1,22.5,31.6,22.5,49.9c0,18.8-20,31.9-25.8,49.8c-7.6,23.4,10.1,46.7,16,70.6c6.6,26.9-2.3,54.8-11.1,81.1
				c-5.1,15.3-10.5,31-21.4,43.2C529.9,725.6,490.9,718.7,461,716.8z"/>
			<g>
				<path fill="#FF9E8B" d="M778,585.4l-0.4,0.6l-32.2-6.7c-11.4-2.4-22.1,6.3-22.1,18l-2.7,4.2l14.5,10.2l13.3-14.4h29.3l12.3-18.4
					C785.2,578.9,780.7,581.3,778,585.4z"/>
				<path fill="#008793" d="M591.8,609.7l-41.6-74.8l-8,57.4l73.4,128.9c5.4,9.5,15.2,14.2,24.9,13.8l-48.8-85.6V609.7z"/>
				<path fill="#00C19B" d="M642.5,700.9l-50.7-91.2v39.7l48.8,85.6c8.1-0.3,16.1-4.2,21.3-11.8l75.6-109.8l-2.4-1.6l-14.5-10.2
					L642.5,700.9z"/>
			</g>
			<path fill="#FF9E8B" d="M376.5,718.2h-54.4c0,11.7,10.7,20.4,22.1,18l32.2-6.7l0.4,0.6c2.6,4.1,7.1,6.5,11.9,6.5L376.5,718.2z"/>
			<g>
				<path fill="#8E285C" d="M501.6,424.2h-40.3v61.9c11.8,8.2,25.9,13.1,40.3,14V424.2z"/>
				<polygon fill="#008793" points="322.2,718.2 349.1,718.2 298.4,602.6 272.8,628.3 				"/>
				<path fill="#008793" d="M439.2,643.2l-8.8-62.3c-1.8-13-15.1-21-27.5-16.7l7.6,47.3c7.8,48.6-1.3,98.4-25.8,141l-1.5,2.6h53.3
					l3.5-28.5C443.4,698.9,443.1,670.8,439.2,643.2z"/>
				<path fill="#FF9E8B" d="M464.2,541.7c10.5,6.7,24.5,8.6,35.8,3.3c9.8-4.6,16.9-15.2,16.9-25.9h-15.3V500
					c-14.4-0.8-28.5-5.8-40.3-14v33.1h-16.1C449.4,528.2,455.8,536.4,464.2,541.7z"/>
				<path fill="#00C19B" d="M542.2,645.4c21.5-9.8,31.7-34.5,23.6-56.7l-6.6-18.1c-1.8-5-2.8-10.2-2.8-15.5v0
					c0-19.8-16.1-35.9-35.9-35.9h-3.7c0,10.7-7,21.2-16.9,25.9c-11.3,5.3-25.3,3.4-35.8-3.3c-8.4-5.4-14.8-13.5-19-22.6h-9
					c-12.2,0-24.2,2.5-35.4,7.4l-117.7,51.3c-16.7,5.5-24.3,24.8-15.9,40.3l5.6,10.2l25.6-25.6l104.5-38.4
					c12.4-4.4,25.6,3.7,27.5,16.7l8.8,62.3c3.9,27.7,4.2,55.7,0.7,83.5l-3.5,28.5H554l-5.4-18.6c-8.4-28.7-10.7-58.9-6.7-88.6
					L542.2,645.4z"/>
			</g>
			<polygon fill="#221964" points="498.7,1153.4 498.7,884.3 464.2,884.3 464.2,1153.4 381.6,1201.5 581.3,1201.5 			"/>
			<path fill="#8F295D" d="M616.3,884.3H346.6c-12.7,0-22.9-10.3-22.9-22.9v-2.5c0-12.7,10.3-22.9,22.9-22.9h269.7
				c12.7,0,22.9,10.3,22.9,22.9v2.5C639.2,874.1,629,884.3,616.3,884.3z"/>
			<g>
				<path fill="#22108C" d="M494.2,755.1l-5.8,10.1c-18.1,31.5,4.7,70.7,40.9,70.7h142.3L648,755.1H494.2z"/>
				<path fill="#3B1BD4" d="M702.6,1153.4h-41.8l-19.5-355.1c-1.6-23.4,16.9-43.2,40.4-43.2h0c23.4,0,42,19.8,40.4,43.2
					L702.6,1153.4z"/>
				<path fill="#FFFFFF" d="M702.6,1153.4l44.2,15.9c16.9,6.1,31.5,17.4,41.7,32.2l0,0H650.2l10.5-48.1H702.6z"/>
			</g>
			<g>
				<path fill="#22108C" d="M381.8,755.1l-5.8,10.1c-18.1,31.5,4.7,70.7,40.9,70.7h142.3l-23.6-80.8H381.8z"/>
				<path fill="#3B1BD4" d="M590.2,1153.4h-41.8l-19.5-355.1c-1.6-23.4,16.9-43.2,40.4-43.2h0c23.4,0,42,19.8,40.4,43.2
					L590.2,1153.4z"/>
				<path fill="#FFFFFF" d="M590.2,1153.4l44.2,15.9c16.9,6.1,31.5,17.4,41.7,32.2l0,0H537.9l10.5-48.1H590.2z"/>
			</g>
			<g>
				<path fill="#FF9E8B" d="M549.2,386.8c-16.5-1.5-32.5-8.8-43.7-21c-1.8,13.5-8.1,26.5-17.6,36.3c-9.5,9.8-21.9,17.4-35.4,19.6
					c0.6,6.2-1.2,12.5-4.9,17.4c-0.4,0.5-0.8,1-1.3,1.5c0-9.1-7.4-16.5-16.5-16.5c-9.1,0-16.5,7.4-16.5,16.5s7.4,16.5,16.5,16.5
					c4.5,0,8.5-1.8,11.5-4.6c11.5,16.3,30.4,27,51.8,27c35,0,63.3-28.4,63.3-63.3C556.5,405.6,553.8,395.6,549.2,386.8z"/>
				<path fill="#8E285C" d="M430.5,431.4c-2.7,0-5.1,1.4-6.6,3.4l7.5,3.3l-8.9,2.5c0.6,3.9,3.9,6.9,8,6.9c4.4,0,8-3.6,8-8
					C438.5,435,434.9,431.4,430.5,431.4z"/>
				<path fill="#FFFFFF" d="M488.4,439.6c4.8,9.4,14.6,15.8,25.8,15.8s21-6.4,25.8-15.8H488.4z"/>
			</g>
			<polygon fill="#FFFFFF" points="782.5,728.2 678.4,728.2 699.8,736.6 761.1,736.6 			"/>
			<path fill="#FFFFFF" d="M703.3,676.8v24.8c0,11.2,6.3,21.4,16.3,26.4h0h21.8l0,0c10-5,16.3-15.3,16.3-26.4v-24.8H703.3z"/>
		</g>
		<g>
			<g>
				<polygon fill="#FF9E8B" points="1186.7,500 1146.4,500 1160.3,530.2 				"/>
				<polygon fill="#D1C3D8" points="1000.8,697.9 1020.2,697.9 1080.5,598.7 1080.5,568.8 				"/>
				<polygon fill="#D1C3D8" points="1225.6,697.9 1272,697.9 1272,598.7 				"/>
				<path fill="#FFFFFF" d="M1378.2,681.4l-89.6-153c-10.3-17.6-29.1-28.4-49.5-28.4h-52.4l-26.3,30.2l-13.9-30.2h-33.1
					c-20.4,0-39.2,10.8-49.5,28.4l-101,172.5c-9.3,15.8,2.1,35.7,20.5,35.7h87.9v-38.7h-51h-19.4l79.6-129.1v29.9v166.6H1272v-28.6
					h74.6C1374.9,736.6,1392.5,705.8,1378.2,681.4z M1272,697.9h-46.4l46.4-99.2l60.3,99.2H1272z"/>
			</g>
			<g>
				<polygon fill="#FFFFFF" points="974.8,1111.3 925.3,1098.6 925.3,1136.6 974.8,1136.6 				"/>
				<polygon fill="#493A32" points="974.8,1136.6 925.3,1136.6 833.5,1201.5 989.7,1201.5 974.8,1139.8 				"/>
			</g>
			<path fill="#23186C" d="M1085.4,367.5c-8.3,4.7-20.2,1.2-24.6-7.3c-4.4-8.5-0.4-20.2,8.3-24.3c-9.6-4.4-15.5-17.6-10.4-26.8
				c5.2-9.2,18.7-12.5,27.5-6.6c-1.7-7.1,0.2-15.7,5.9-20.2c5.8-4.5,14.2-5.2,20.6-1.9c6.3,3.3,11.5,10.3,18.6,9.5
				c6-0.7,9.7-6.5,14-10.7c6.9-6.7,17.3-9.6,26.7-7.5c9.4,2.1,17.5,9.3,20.9,18.3c8.5-8.6,23.8-9.1,33.9-2.4
				c10.1,6.6,14.6,20.8,10.1,32c9.8,1.3,18.8,3.3,26.3,9.6c7.6,6.3,11.1,18.5,4.9,26.2c-4.7,5.8-13.4,7.6-17.1,14.1
				c-3.7,6.6-0.6,14.8,3.2,21.4s8.2,13.6,7,21.1c-1.6,9.7-12.2,15.1-21.7,17.6c-13.3,3.5-27.3,4.4-41,2.7
				c-16.7-2.1-28.7-15.3-42.8-24.5C1133.5,393.4,1109.2,379.4,1085.4,367.5z"/>
			<polygon fill="#221964" points="1149.3,1153.4 1149.3,884.3 1183.8,884.3 1183.8,1153.4 1266.4,1201.5 1066.7,1201.5 			"/>
			<path fill="#8F295D" d="M1031.7,884.3h269.7c12.7,0,22.9-10.3,22.9-22.9v-2.5c0-12.7-10.3-22.9-22.9-22.9h-269.7
				c-12.7,0-22.9,10.3-22.9,22.9v2.5C1008.7,874.1,1019,884.3,1031.7,884.3z"/>
			<path fill="#493A32" d="M1153.8,755.1l5.8,10.1c18.1,31.5-4.7,70.7-40.9,70.7H976.4l23.6-80.8H1153.8z"/>
			<path fill="#493A32" d="M1266.2,755.1l5.8,10.1c18.1,31.5-4.7,70.7-40.9,70.7h-142.3l23.6-80.8H1266.2z"/>
			<g>
				<path fill="#FF9E8B" d="M1186.7,500h-40.3v-19.1c14.4-0.8,28.5-5.8,40.3-14V500z"/>
				<path fill="#8E285C" d="M1186.7,405v61.9c-11.8,8.2-25.9,13.1-40.3,14V405H1186.7z"/>
			</g>
			<path fill="#FF9E8B" d="M1217.1,404.8c-4.9,0-9.3,2.2-12.3,5.6c-3.2-2-5.8-4.9-7.5-8.3c-2.5-5.1-2.9-11.3-0.9-16.7
				c1.3-3.4,3.5-6.5,5-9.9c1.5-3.4,1.8-7.2,0.2-10.5c-4.4,3.3-10.8,3.5-15.5,0.6c-4.7-2.9-6.6-9.3-5.7-14.7c-3.2-5-9.9-6.8-15.9-6.1
				c-5.9,0.8-11.3,3.6-16.8,6.1c-5.5,2.4-11.4,4.6-17.3,3.8c-5.9-0.8-13-4.9-13.3-10.9c-6.3,6.9-16.3,10.2-25.5,8.4
				c-4.3-0.9-8.3-2.8-11.7-5.6c-5.6,10.8-8.9,23-8.9,36c0,42.8,34.7,77.6,77.6,77.6c23.2,0,44-10.2,58.2-26.4
				c2.8,2.2,6.3,3.5,10.1,3.5c9.1,0,16.4-7.4,16.4-16.4C1233.5,412.1,1226.2,404.8,1217.1,404.8z"/>
			<path fill="#8E285C" d="M1217.2,413.1c2.7,0,5.1,1.4,6.6,3.4l-7.5,3.3l8.9,2.5c-0.6,3.9-3.9,6.9-8,6.9c-4.4,0-8-3.6-8-8
				C1209.1,416.7,1212.7,413.1,1217.2,413.1z"/>
			<g>
				<polygon fill="#FFFFFF" points="1088.8,1111.3 1039.3,1098.6 1039.3,1136.6 1088.8,1136.6 				"/>
				<polygon fill="#493A32" points="1088.8,1136.6 1039.3,1136.6 947.5,1201.5 1103.7,1201.5 1088.8,1139.8 				"/>
			</g>
			<path fill="#806C62" d="M1103.1,1124.3h-83V806.1c0-28.2,22.8-51,51-51h0c28.2,0,51,22.8,51,51L1103.1,1124.3z"/>
			<path fill="#806C62" d="M989.7,1122.7h-83V806.1c0-28.2,22.8-51,51-51h0c28.2,0,51,22.8,51,51L989.7,1122.7z"/>
			<path fill="#FF9E8B" d="M1075.9,694.8L1075.9,694.8c21.7-3.1,42.5,9.7,49.5,30.4l3.9,11.4h-97.6l11.3-19.5
				C1049.9,705,1062.1,696.7,1075.9,694.8z"/>
			<path fill="#FF9E8B" d="M1204.6,694.8L1204.6,694.8c21.7-3.1,42.5,9.7,49.5,30.4l3.9,11.4h-97.6l11.3-19.5
				C1178.6,705,1190.7,696.7,1204.6,694.8z"/>
			<polygon fill="#FFFFFF" points="958.8,728.2 854.8,728.2 876.1,736.6 937.4,736.6 			"/>
			<path fill="#FFFFFF" d="M879.6,676.8v24.8c0,11.2,6.3,21.4,16.3,26.4h0h21.8l0,0c10-5,16.3-15.3,16.3-26.4v-24.8H879.6z"/>
			<path fill="#FFFFFF" d="M1162.5,412.2c-17.7,6.3-36.8,8.7-55.6,7c0.1,8.7,7.5,17.3,15.7,20c8.3,2.7,17.7,0.5,24.6-4.7
				S1160.4,420.6,1162.5,412.2z"/>
		</g>
		<g>
			<rect x="338.6" y="736.6" fill="#FF7C00" width="512.9" height="37"/>
			<rect x="851.5" y="736.6" fill="#FF6B00" width="512.9" height="37"/>
		</g>
		<g>
			<polygon fill="#FF7C00" points="695.1,773.6 660.3,773.6 509.5,1201.5 544.3,1201.5 			"/>
			<polygon fill="#FF7C00" points="1007.8,773.6 1042.6,773.6 1193.4,1201.5 1158.6,1201.5 			"/>
		</g>
		<rect x="554.8" y="1117.6" fill="#FF7C00" width="593.3" height="19"/>
	</g>
</g>
</svg>
